<svg width="246" height="246" viewBox="0 0 246 246" fill="none" xmlns="http://www.w3.org/2000/svg">
<g filter="url(#filter0_d)">
<path d="M117.638 230.163C96.3933 231.723 78.8667 227.044 62.4023 217.167C45.4068 207.29 32.1291 194.293 21.5069 177.658C17.7891 171.94 15.1336 165.182 11.9469 159.464C8.22914 153.225 7.69804 146.467 6.10471 139.709C3.98027 131.392 5.5736 121.515 5.5736 112.677C5.04249 95.0022 10.3536 78.3671 19.3824 63.2914C26.2869 51.8548 33.1913 39.8982 45.9379 32.1005C53.3734 27.4219 60.809 21.7035 69.3067 17.5447C79.9289 12.8661 90.5511 8.18745 102.767 7.6676C108.609 7.14775 114.451 4.54851 120.293 5.06836C147.911 8.7073 173.935 15.4653 194.117 35.7394C203.677 45.6166 213.237 54.9739 218.548 67.4502C222.797 77.3274 225.984 86.6847 228.64 97.6015C230.764 106.959 231.826 116.316 230.233 125.153C228.108 140.749 224.922 156.344 217.486 170.9C202.084 200.012 178.184 217.167 148.973 227.044C138.351 230.163 126.667 232.242 117.638 230.163ZM150.035 73.6884C151.098 72.6487 151.629 72.1289 164.375 65.8907C160.658 65.8907 156.409 64.851 153.753 69.0098C151.098 72.6487 154.815 70.5693 155.346 71.0892C156.409 72.1289 158.002 73.1686 158.002 74.2083C158.533 77.8472 158.002 80.9663 158.002 84.6053C158.002 85.1251 159.064 86.1648 159.595 86.1648C161.72 85.1251 163.844 84.0854 165.969 82.5258C166.5 82.006 165.969 79.9266 165.437 79.4068C164.375 77.8472 162.251 76.2877 161.189 74.7281C160.658 74.2083 161.189 72.6487 161.189 72.1289C162.251 71.609 163.844 70.5693 164.375 71.0892C165.969 71.609 167.031 73.1686 168.093 74.2083C169.686 75.7678 170.749 76.8075 171.28 73.6884C172.342 66.4105 171.28 65.3708 152.691 70.5693C151.629 71.609 150.566 72.6487 150.035 73.6884C148.973 74.7281 148.442 75.248 147.38 81.4862C147.38 80.4465 147.38 79.4068 147.38 78.8869C147.38 78.3671 147.38 77.3274 147.38 76.2877C146.318 76.8075 144.724 77.3274 144.193 78.3671C142.069 81.4862 139.413 84.6052 136.226 86.6846C135.695 87.2045 135.695 88.2442 135.164 89.2839C136.226 89.2839 136.758 89.8037 137.82 89.8037C139.944 89.2839 141.538 87.2045 143.131 87.2045C147.911 87.7243 148.442 85.1251 147.911 76.8075C147.911 75.248 148.973 74.2083 150.035 73.6884ZM134.633 54.454C131.978 55.4937 130.384 56.0136 128.26 56.5334C129.853 57.5731 131.447 59.1327 133.04 60.1723C133.571 60.1723 135.164 58.6128 135.695 57.5731C136.226 57.0533 134.633 55.4937 137.289 52.8945C136.758 53.4143 136.226 53.9342 135.695 53.9342C136.226 54.454 136.227 54.454 136.758 54.9739C137.289 54.454 137.82 53.9342 137.82 53.4143C138.882 53.4143 138.351 53.4143 134.633 54.454ZM40.6268 41.9776C40.0957 42.4975 39.0335 44.5769 37.4402 46.1364C38.5024 46.6563 40.6268 46.6563 41.1579 47.696C42.7513 49.2555 43.8135 51.8548 45.4068 53.4143C45.9379 53.9342 46.469 54.454 47.0001 54.9739C47.5312 54.454 48.0623 53.4143 48.0623 52.8945C47.0001 49.2555 45.9379 46.1364 44.8757 42.4975C44.8757 41.9776 43.2824 41.9776 37.4402 45.6166C35.3157 47.696 33.7224 49.2555 32.1291 50.8151C31.0668 51.8548 30.5357 53.4143 30.0046 54.454C31.0668 54.454 32.6602 54.9739 33.7224 54.9739C35.3157 54.9739 36.909 53.9342 37.4402 52.3746C37.9713 50.8151 37.4402 49.2555 40.6268 41.9776ZM179.246 81.4862C181.902 81.4862 184.557 81.4862 210.051 68.4899C207.395 71.609 205.271 74.7281 202.084 75.7678C198.897 77.3274 195.711 76.2877 193.055 79.4068C191.462 81.4862 188.275 83.0457 185.089 84.0854C181.902 85.1251 181.371 85.1251 184.026 87.7243C185.62 89.2839 185.089 94.4824 188.275 91.8831C190.931 90.3236 196.773 90.8434 195.711 84.6053C195.18 83.5656 197.304 81.4862 198.366 80.4465C198.897 79.9266 200.491 79.9266 201.022 80.4465C201.553 81.4862 199.96 85.6449 204.208 83.0457C207.926 80.9663 211.113 78.8869 214.831 76.8075C215.362 76.2877 216.955 75.248 216.424 74.7281C214.3 70.5693 211.644 66.4105 208.988 62.2517C208.988 62.2517 206.333 62.7716 205.271 63.8113C202.084 65.3708 204.208 65.3708 205.802 65.8907C206.864 65.8907 207.926 66.9304 186.682 81.4862C186.151 79.9266 186.151 78.3671 185.62 76.8075C185.089 74.7281 184.557 73.1686 184.026 71.0892C186.682 71.609 190.4 62.7716 191.993 72.1289C191.993 72.6487 193.586 73.6884 193.586 73.1686C195.711 71.0892 197.835 69.0098 199.96 66.4105C200.491 65.8907 198.366 63.2914 197.835 63.2914C193.055 63.8113 188.806 64.851 184.026 65.8907C184.557 62.2517 182.433 58.093 185.62 54.9739C186.682 53.9342 187.744 51.8548 189.337 54.454C190.4 56.0136 190.931 57.0533 191.993 58.6128C192.524 59.1326 193.055 60.1723 193.055 60.6922C193.586 59.6525 194.117 58.6128 194.649 57.5731C195.18 56.5334 196.242 56.0136 197.304 55.4937C202.615 51.8548 202.615 51.8548 198.366 47.1761C197.304 46.1364 195.711 44.5769 194.649 43.5372C191.993 41.4578 190.931 41.4578 189.337 45.0967C186.151 51.3349 185.62 50.8151 178.715 47.696C179.246 46.1364 179.246 44.5769 179.777 43.0173C181.371 39.3784 186.682 38.8585 186.151 34.6997C182.964 35.7394 179.777 37.299 176.591 37.299C170.749 36.7791 170.217 43.0173 165.969 44.5769C167.562 51.8548 161.72 50.2952 158.002 50.2952C156.94 45.0967 152.691 48.7357 150.035 47.696C153.753 44.057 152.691 39.3784 152.691 34.6997C156.409 35.7394 158.533 33.66 160.126 31.0608C162.251 28.4616 164.375 28.9814 166.5 31.5807C168.093 33.1402 169.155 36.2593 172.342 32.6203C174.466 29.5013 174.997 26.902 171.28 25.8623C165.969 23.7829 161.72 19.1043 151.629 20.144C153.222 19.6241 154.284 18.5844 155.346 18.0646C154.284 17.5447 153.222 17.0249 152.16 17.0249C150.566 17.0249 148.973 17.5447 147.38 18.0646C148.442 18.0646 150.035 18.5844 155.346 18.5844C155.346 19.1043 155.346 19.6241 155.346 19.6241C158.533 22.2234 160.126 25.8623 156.94 28.4616C153.753 31.0608 152.16 25.8623 149.504 24.8226C147.911 23.7829 146.318 22.7432 144.724 22.7432C143.662 22.7432 142.6 25.3425 142.069 26.3822C140.475 25.8623 138.882 25.8623 137.289 25.3425C138.882 22.7432 132.509 21.1837 136.226 17.0249C138.351 14.4256 133.571 10.7867 127.729 10.7867C125.604 10.7867 122.949 10.2668 123.48 13.3859C123.48 14.4256 125.604 14.9455 127.198 15.9852C128.26 16.505 129.853 16.505 130.915 16.505C127.198 21.1837 134.102 22.7432 134.102 25.8623C134.102 27.4219 131.978 29.5013 130.915 31.0608C129.322 30.541 127.729 30.0211 127.729 29.5013C125.604 22.7432 121.887 18.0646 113.92 18.5844C113.389 18.5844 113.389 16.505 112.327 15.4653C109.14 11.3065 104.891 9.74699 100.111 11.3065C97.9866 12.3462 95.3311 13.3859 93.7377 14.9455C92.6755 16.505 93.7377 19.1043 93.7377 21.1837C92.1444 21.1837 90.02 21.1837 79.9289 27.9417C82.0533 25.8623 83.6467 24.3028 85.24 23.2631C87.8955 20.6638 88.4267 20.144 87.3644 19.1043C85.7711 17.5447 84.1778 14.9455 80.9911 16.505C79.9289 17.5447 78.3356 18.0646 76.7422 18.5844C76.2111 19.1043 75.68 20.144 76.2111 20.6638C77.2734 22.7432 78.3356 24.8226 88.4267 20.6638C87.3644 26.902 86.8333 32.6203 85.7711 38.8585C83.1156 37.8188 80.46 36.7791 77.8045 36.2593C74.6178 36.2593 74.6178 34.6997 75.68 32.6203C76.2111 31.5807 78.8667 31.0608 76.2111 28.9814C73.5556 27.4219 71.4312 25.8623 68.7756 24.3028C67.7134 23.7829 66.1201 23.7829 65.589 24.3028C65.0578 24.8226 64.5267 27.4219 64.5267 27.4219C68.2445 30.0211 67.1823 33.66 68.2445 36.7791C63.4645 36.7791 60.2779 36.2593 57.0912 38.8585C55.4979 39.8982 51.249 37.299 48.0623 36.7791C47.5312 36.7791 46.469 37.299 45.9379 37.8188C46.469 38.3387 46.469 39.3784 47.0001 39.3784C51.249 40.9379 56.029 43.5372 60.2779 44.057C62.4023 44.057 65.0578 39.8982 66.6512 36.7791C71.4312 36.7791 74.6178 38.3387 77.2734 41.9776C75.68 42.4975 73.5556 41.9776 72.4934 43.0173C69.8378 46.1364 66.6512 47.696 62.4023 47.1761C53.9045 47.1761 63.9956 50.8151 61.3401 53.4143C60.809 52.8945 60.2779 52.3746 59.7467 52.3746C58.1534 51.3349 56.029 50.2952 54.4357 49.7754C53.3734 49.2555 52.3112 50.2952 50.7179 50.8151C51.249 51.8548 52.3112 52.8945 52.8423 53.4143C54.9668 54.454 56.5601 54.454 58.6845 54.9739C59.2156 54.9739 60.2779 53.9342 60.809 52.3746C64.5267 52.3746 68.7756 51.8548 70.9 56.0136C71.4312 57.0533 74.6178 58.093 75.1489 57.5731C77.8045 54.9739 79.9289 51.8548 82.0533 48.7357L81.5222 47.696C80.46 48.2158 78.8667 49.2555 77.8045 49.7754C76.7422 50.2952 76.2111 50.8151 75.1489 51.8548C74.6178 50.8151 74.0867 49.2555 74.0867 48.2158C74.6178 46.1364 75.68 44.057 76.7422 41.4578C77.8045 41.4578 79.9289 40.9379 80.46 41.4578C85.7711 46.1364 84.7089 41.9776 84.7089 38.8585C90.02 40.4181 86.8333 46.1364 89.4889 49.2555C92.1444 52.3746 93.2066 54.454 98.5177 54.454C99.0488 54.454 100.111 55.4937 100.642 55.4937C101.704 55.4937 103.298 55.4937 103.298 55.4937C103.298 52.8945 103.829 50.2952 103.298 47.696C103.298 47.1761 100.111 47.1761 98.5177 46.1364C96.9244 45.6166 95.8622 44.057 94.2689 44.057C92.1444 43.5372 89.4889 44.057 90.02 40.9379C90.02 39.8982 92.6755 39.3784 93.7377 38.8585C96.9244 38.3387 101.173 36.2593 101.173 36.2593C99.5799 32.6203 95.8622 35.2196 93.7377 34.1799C92.6755 33.66 91.6133 32.6203 91.6133 32.1005C91.6133 31.0608 92.6755 29.5013 93.2066 29.5013C99.0488 28.9814 95.3311 27.4219 94.2689 25.3425C93.7377 24.3028 94.2689 22.7432 94.2689 21.7035C96.3933 20.144 97.9866 18.0646 100.642 17.0249C101.704 16.505 104.891 17.5447 104.891 17.5447C104.36 22.7432 108.609 21.1837 111.264 21.7035C119.231 22.2234 121.887 23.7829 124.011 31.5807C124.542 34.1799 125.604 35.2196 128.26 34.6997C130.384 34.6997 132.509 34.6997 135.164 34.6997C134.102 37.299 133.04 39.8982 132.509 42.4975C131.978 44.5769 131.447 48.2158 135.695 47.696C137.289 47.696 139.413 47.696 141.006 47.696C141.538 47.696 142.069 46.1364 142.069 45.6166C141.006 44.057 139.413 42.4975 137.82 40.9379C137.289 40.4181 137.82 39.3784 138.351 38.3387C139.413 38.8585 139.944 38.8585 141.006 38.8585C142.6 38.8585 144.193 38.8585 145.255 38.8585C143.662 37.299 143.662 34.6997 142.6 34.1799C138.882 31.5807 139.413 29.5013 141.538 26.3822C145.255 28.9814 151.098 28.9814 152.16 34.1799C146.849 34.6997 146.849 39.8982 144.724 43.0173C142.069 47.696 146.318 47.1761 149.504 47.1761C146.849 50.2952 144.193 53.4143 142.069 56.5334C144.724 58.6128 147.38 60.1723 150.035 62.2517C150.566 62.7716 151.629 62.7716 151.629 62.2517C152.16 61.7319 152.16 60.6922 152.16 60.1723C151.629 58.093 149.504 55.4937 150.035 53.9342C151.098 51.3349 153.753 49.2555 157.471 50.2952C156.94 52.8945 158.002 54.9739 160.126 57.0533C160.658 57.0533 159.064 59.1327 158.533 60.6922C160.658 61.212 162.782 61.212 162.782 58.093C162.782 55.4937 163.844 56.0136 165.969 57.0533C167.031 58.0929 169.155 58.093 170.749 58.093C173.404 58.093 174.466 56.0136 173.404 53.9342C172.873 52.8945 171.28 52.3746 170.749 51.3349C169.686 49.7754 169.155 47.696 168.624 46.1364C170.749 45.6166 172.873 45.0967 174.997 45.6166C176.591 45.6166 177.653 47.1761 179.246 48.2158C179.246 51.3349 178.715 55.4937 180.309 58.093C182.964 61.7319 177.122 63.8113 179.246 66.4105C177.653 66.4105 176.06 65.8907 175.529 66.4105C174.466 67.4502 177.653 75.7678 179.777 76.8075C185.089 79.4068 177.122 80.4465 180.309 84.0854C178.184 82.006 177.122 80.4465 175.529 79.4068C174.466 78.8869 172.873 79.9266 171.811 80.9663C171.28 81.4862 172.342 84.0854 172.873 84.0854C174.466 84.0854 177.122 83.5656 179.246 81.4862ZM109.671 96.0419C108.078 94.4824 104.891 92.403 103.298 89.2839C99.0488 82.5259 93.2066 84.0854 86.8333 84.0854C86.3022 84.0854 85.7711 85.1251 85.7711 85.1251C85.7711 85.1251 86.3022 85.645 86.8333 86.1648C94.8 88.764 101.704 93.9625 108.078 99.161C108.609 99.161 109.14 99.161 109.671 98.6412C109.671 98.6412 109.671 97.6015 85.7711 84.0854C86.3022 79.9266 86.3022 76.2877 80.46 74.7281C78.3356 74.2083 76.7422 72.1289 75.1489 71.0892C76.7422 71.0892 77.8045 71.0892 79.3978 71.0892C79.3978 70.0495 79.9289 69.0098 79.3978 68.4899C73.5556 61.7319 67.1823 57.0533 57.0912 58.093C51.249 58.6128 51.7801 58.093 51.249 63.8113C50.7179 71.0892 56.029 67.9701 59.2156 68.4899C57.0912 72.1289 54.4357 77.3274 50.1868 75.7678C45.9379 74.7281 44.3446 69.0098 43.2824 64.851C42.7513 62.7716 43.2824 60.6922 43.2824 58.093C40.0957 60.1723 37.4402 61.7319 35.8468 63.8113C32.1291 68.4899 30.0046 62.7716 26.818 63.2914C25.7558 63.2914 24.6935 64.3311 23.6313 65.3708C19.9135 69.5296 11.4158 92.403 10.8847 98.1213C10.3536 102.8 12.478 108.518 8.22915 112.677C8.22915 112.677 9.82247 115.276 10.8847 115.796C11.9469 116.316 13.5402 116.316 14.6025 115.796C20.9758 112.677 27.8802 111.118 35.3157 110.598C42.7513 110.078 49.6557 108.518 57.0912 107.998C64.5267 107.479 71.9623 106.959 78.8667 110.598C79.9289 111.118 81.5222 109.558 83.1156 109.038C81.5222 106.959 79.9289 103.32 77.8045 103.32C65.589 102.8 53.9045 98.6412 41.689 100.201C38.5024 100.721 35.8468 100.721 33.1913 102.8C31.598 103.84 27.8802 101.76 26.818 100.201C26.2869 99.161 25.7558 98.1213 24.6935 97.6015C22.038 95.5221 18.8513 93.4427 15.1336 90.8434C21.5069 89.2839 25.7558 89.2839 29.4735 93.4427C31.0668 95.5221 31.598 94.4824 32.1291 92.403C33.1913 87.7244 35.8468 86.6847 40.0957 89.8037C40.6268 89.8037 42.2201 89.2839 42.2201 88.764C42.7512 87.7243 42.7512 86.1648 42.2201 85.1251C40.6268 82.5258 37.9713 81.4862 34.2535 81.4862C31.0668 81.4862 27.3491 80.9663 24.1624 80.4465C23.1002 80.4465 21.5069 78.8869 21.5069 77.8472C21.5069 76.8075 23.1002 75.7678 24.1624 75.248C26.2869 74.7281 28.9424 73.1686 30.0046 74.2083C33.7224 77.3274 34.7846 76.2877 35.3157 72.1289C35.3157 72.1289 38.5024 71.609 39.5646 72.1289C41.689 73.6884 43.2824 75.7678 42.7513 78.8869C42.7513 79.9266 44.3446 81.4862 44.3446 81.4862C48.0623 79.9266 54.4357 85.6449 56.029 77.8472C56.029 77.8472 58.1534 77.3274 58.6845 77.8472C60.2779 78.8869 62.4023 81.4862 63.4645 81.4862C71.9623 79.9266 78.3356 84.0854 109.671 96.0419ZM147.38 218.726C146.849 217.167 146.318 216.127 145.786 214.568C145.255 215.607 144.724 216.127 144.724 217.167C144.724 218.726 145.786 220.806 146.318 222.365C146.849 221.326 147.38 220.286 144.724 214.568C145.786 210.409 141.538 207.809 141.006 204.171C140.475 202.611 139.413 200.532 139.944 200.012C142.6 196.373 145.255 192.214 148.442 189.095C150.035 187.535 152.691 187.535 152.691 191.174C153.753 200.012 158.002 206.77 164.906 212.488C167.031 214.048 168.093 215.087 169.686 212.488C171.28 210.409 172.873 208.329 169.155 206.77C162.251 204.171 158.533 198.452 158.533 191.174C158.533 186.496 157.471 183.377 153.753 179.738C151.629 177.658 151.629 173.499 149.504 170.9C145.786 167.261 147.38 164.142 150.566 163.102C153.222 162.063 155.878 157.904 160.126 162.583C163.313 166.222 165.438 169.341 167.031 174.019C168.624 178.178 169.686 182.857 173.935 187.016C177.653 191.174 181.371 196.893 180.309 203.651C182.964 192.214 182.964 192.214 176.06 182.857C175.529 182.337 175.529 181.297 174.997 180.257C176.06 180.257 177.653 179.738 178.715 180.777C182.964 184.416 187.213 188.055 189.337 193.254C189.869 194.293 190.931 194.293 191.993 195.333C192.524 194.293 193.055 192.734 192.524 191.694C188.806 186.496 185.62 180.257 178.715 177.138C172.873 174.539 169.155 168.821 168.624 162.583C168.624 161.543 169.155 159.983 170.217 159.464C170.749 158.944 172.342 158.944 172.873 159.464C176.06 163.622 179.777 165.182 185.62 164.662C187.213 164.662 189.337 167.781 190.4 169.86C193.055 174.019 195.18 178.178 203.677 179.218C203.146 178.698 202.615 178.178 202.615 177.658C202.084 178.178 202.084 178.178 201.553 178.698C202.084 179.218 202.615 179.738 203.146 179.738C203.146 179.738 203.677 179.218 201.553 177.658C200.491 176.099 198.897 174.539 197.835 172.46C197.304 170.9 196.773 169.341 196.773 167.781C196.773 167.261 198.897 166.741 199.96 166.741C205.802 167.781 210.582 165.182 215.362 162.063C215.893 161.543 216.424 160.503 216.424 159.464C215.362 159.464 214.3 158.944 214.3 158.944C211.113 162.583 206.864 162.583 203.677 161.023C200.491 159.464 197.304 156.344 195.18 153.225C194.117 151.666 193.055 149.067 194.117 147.507C195.711 143.348 196.773 148.547 198.366 148.547C203.677 148.547 208.988 148.547 214.3 148.547C215.893 148.547 218.017 148.547 219.611 148.027C221.204 147.507 221.735 145.947 223.328 144.388C221.735 144.388 220.142 143.348 219.08 143.868C212.706 147.507 206.333 145.947 199.96 144.388C191.462 142.309 183.495 138.67 175.529 136.59C168.093 134.511 160.658 132.951 153.753 139.189C146.318 146.467 135.164 142.828 133.04 132.431C132.509 130.352 131.978 127.233 136.226 127.233C144.193 127.753 151.629 128.273 159.064 129.312C174.997 131.912 190.931 128.273 207.395 126.713C211.113 126.193 215.362 124.634 219.611 124.114C223.86 123.594 225.984 119.955 225.984 115.276C225.984 110.078 225.984 104.879 225.984 99.6809C225.984 95.5221 222.266 92.403 223.328 87.7243C223.86 84.6052 220.673 84.0854 216.955 84.6053C213.237 85.1251 209.52 90.8434 205.802 85.1251C205.802 85.1251 202.084 86.6846 200.491 88.2442C200.491 88.2442 201.553 90.8434 202.084 91.8831C202.615 92.9228 203.677 93.4427 205.271 95.5221C201.022 95.5221 196.773 96.5618 195.18 95.5221C190.931 90.8434 188.275 93.9625 185.62 97.0816C182.433 100.721 177.653 102.28 174.997 106.439C167.031 106.439 159.064 110.598 150.566 109.038C142.6 107.479 134.633 111.118 126.667 112.677C120.824 113.717 117.638 118.915 113.389 122.554C112.858 123.074 112.858 123.594 112.327 123.594C108.609 124.634 105.953 126.193 107.547 130.352C109.14 136.07 104.891 139.709 101.173 141.789C96.9244 144.388 92.1444 146.987 86.8333 144.388C82.0533 142.309 76.7422 139.709 71.4312 139.709C60.2779 139.709 50.1868 135.55 40.0957 131.392C35.3157 129.312 30.0046 127.753 26.818 129.312C22.5691 131.392 16.1958 130.352 13.5402 136.07C13.0091 137.11 12.478 138.15 11.9469 138.67C13.0091 138.67 15.1336 139.189 15.6647 139.189C19.3824 133.471 25.2246 133.991 31.0668 134.511C40.6268 135.031 48.5935 139.189 57.0912 142.308C57.6223 142.828 58.6845 142.828 59.2156 143.348C58.6845 144.388 57.6223 145.947 57.0912 145.947C53.3734 148.547 49.6557 150.106 48.0623 149.067C44.3446 146.467 40.0957 148.027 36.909 146.467C33.1913 144.908 30.0046 142.309 26.818 145.947C24.1624 148.547 21.5069 151.666 19.3824 154.785V155.825C19.9135 156.344 20.4447 156.864 20.9758 156.864C20.9758 156.864 21.5069 156.344 22.038 155.825C26.2869 150.626 30.5357 148.547 38.5024 151.666C46.469 154.785 56.029 157.384 65.589 152.705C70.3689 150.626 76.7422 152.186 82.5844 152.186C84.1778 152.186 85.7711 153.225 86.8333 154.265C89.4889 156.344 89.4889 158.424 85.7711 159.464C79.3978 162.063 73.0245 164.662 65.589 165.182C57.6223 165.182 50.7179 162.583 44.3446 158.944C40.0957 156.864 36.909 156.864 33.1913 157.384C30.5357 157.904 28.4113 160.503 26.2869 162.583C25.7558 163.102 25.7558 163.622 25.7558 164.142C26.818 164.142 28.4113 165.182 29.4735 164.662C32.1291 163.102 34.2535 159.983 36.909 159.983C39.5646 159.983 41.1579 164.142 43.8135 165.702C49.1246 168.821 54.4356 171.94 59.7467 174.539C55.4979 181.297 47.5312 182.857 39.5646 184.936C48.5935 186.496 56.5601 185.976 63.4645 179.218C67.1823 176.099 73.0245 172.98 77.8045 172.98C87.3644 173.499 94.2689 168.821 102.235 165.182C102.767 177.138 102.767 177.658 91.0822 177.658C85.24 177.658 79.9289 179.218 75.68 182.337C68.2445 188.055 62.4023 194.813 55.4979 201.571C54.9668 202.091 55.4979 203.131 55.4979 203.131C56.029 203.651 57.6223 203.651 58.1534 203.651C59.7467 202.611 61.3401 201.051 62.9334 199.492C67.1823 195.333 70.9 191.694 75.1489 187.535C77.2734 185.456 85.7711 184.416 85.7711 185.976C85.7711 189.095 81.5222 189.095 79.9289 190.654C75.1489 196.373 71.9623 203.131 68.2445 209.369C68.2445 209.889 68.2445 210.929 68.7756 210.929C69.3067 211.448 70.9 211.448 71.4312 210.929C71.9623 209.889 72.4934 208.849 73.0245 207.809C75.1489 204.171 77.2734 200.532 80.46 197.932C81.5222 196.373 84.1778 195.853 86.3022 195.853C89.4889 195.333 88.9578 198.452 90.02 200.012C95.3311 207.29 97.4555 216.127 99.5799 224.445C100.111 216.647 101.704 208.849 96.9244 201.571C93.2066 195.333 94.2689 190.654 99.0488 185.456C104.891 179.218 112.327 174.539 114.451 165.702C114.451 165.182 118.169 165.182 118.7 165.702C119.762 168.301 121.887 172.98 120.824 174.019C117.107 177.658 121.355 183.377 116.575 187.016C112.858 189.615 110.733 194.293 108.609 197.932C107.547 199.492 109.14 220.286 110.733 224.445C111.264 218.726 111.795 212.488 111.264 206.77C110.733 201.051 114.982 198.452 119.231 195.853C119.762 195.333 122.418 196.893 121.887 197.412C120.824 206.25 128.26 213.528 127.729 222.885C127.729 223.405 129.322 224.445 130.384 224.445C130.915 224.445 132.509 223.925 132.509 223.405C132.509 218.206 134.633 213.008 131.447 208.329C126.667 201.571 127.198 193.774 128.26 186.496C128.26 183.377 130.915 179.738 133.04 176.619C134.102 175.059 137.289 174.539 138.882 175.059C141.006 175.579 143.662 178.178 144.193 179.738C144.724 184.416 144.724 188.575 142.069 193.254C134.102 203.131 135.164 206.25 147.38 218.726ZM102.767 103.32C101.704 101.76 100.642 100.201 99.5799 99.6809C95.3311 97.0816 91.0822 95.0022 87.3644 91.8831C84.1778 89.2839 81.5222 88.2442 78.3356 90.3236C79.9289 92.9228 80.9911 96.0419 83.1156 98.1213C84.1778 99.161 86.3022 99.161 87.3644 99.6809C90.5511 101.24 95.3311 100.721 96.3933 105.919C96.3933 106.439 99.0488 107.479 99.5799 106.959C100.642 106.439 101.704 105.399 102.767 103.32ZM114.982 85.1251C109.14 80.9663 105.953 73.1686 97.4555 70.5693C96.3933 70.0495 94.8 65.3708 93.7377 70.5693C93.2066 72.6487 88.9578 74.7281 93.7377 77.3274C100.111 80.9663 108.078 82.5259 112.858 88.2442C112.858 88.2442 113.92 88.2442 114.451 87.7243C114.982 87.7243 114.982 87.2045 114.982 85.1251ZM127.729 84.0854C128.791 84.0854 129.853 84.0854 130.384 83.5656C134.633 79.4068 139.413 75.248 143.662 70.5693C145.786 67.9701 145.786 64.851 143.131 62.7716C142.069 61.7319 140.475 59.1326 139.944 62.2517C138.351 70.0495 132.509 74.2083 127.198 79.4068C126.667 80.4465 126.135 81.4862 126.135 83.0457C126.135 83.0457 127.198 83.5656 127.729 84.0854ZM57.0912 84.0854C52.8423 83.5656 49.6557 84.6053 48.0623 89.2839C47.5312 90.3236 45.9379 91.8831 44.8757 91.8831C42.2201 91.8831 39.0335 92.403 40.6268 96.0419C41.1579 96.5618 45.4068 96.5618 47.5312 96.5618C48.5934 96.5618 49.6557 95.0022 50.1868 93.9625C53.9045 90.3236 56.029 91.3633 56.5601 96.0419C56.5601 96.5618 58.6845 96.5618 59.7467 97.0816C59.7467 96.0419 59.7467 95.5221 59.7467 94.4824C59.2156 92.403 58.1534 90.3236 58.6845 88.764C60.2779 86.1648 63.4645 83.5656 57.0912 84.0854ZM179.246 91.8831C179.246 86.6847 178.715 86.1648 173.935 88.2442C173.404 88.764 172.873 89.2839 171.811 89.2839C169.686 89.8037 168.624 93.4427 168.624 96.0419C168.093 101.24 172.342 100.201 174.466 99.6809C177.653 98.6412 179.777 95.5221 179.246 91.8831ZM115.513 45.6166C114.982 44.057 114.982 43.0173 114.451 42.4975C110.733 39.8982 109.671 36.2593 109.671 31.5807C109.671 29.5013 108.078 26.902 107.015 24.8226C107.015 24.3028 104.891 24.8226 104.36 24.8226C102.235 26.3822 101.173 27.9417 102.767 31.0608C105.422 35.7394 107.547 40.9379 109.671 46.1364C110.202 47.1761 109.14 50.2952 111.795 48.2158C113.389 48.2158 114.451 46.6563 115.513 45.6166ZM125.073 59.6525C124.011 57.5731 123.48 55.4937 122.418 53.9342C122.418 53.9342 120.824 54.454 119.762 54.9739C118.7 54.9739 117.638 54.9739 116.044 54.9739C114.982 54.9739 113.389 50.2952 112.327 54.9739C111.795 57.0533 109.14 60.1723 110.202 61.7319C112.858 65.8907 114.982 60.6922 117.638 60.6922C119.762 60.6922 121.887 60.6922 124.011 60.6922C124.542 60.1723 125.073 59.6525 125.073 59.6525ZM128.26 65.3708C127.729 64.851 127.198 63.2914 126.667 63.2914C125.604 63.2914 123.48 63.8113 123.48 64.3311C122.418 67.9701 121.355 70.5693 117.107 71.0892C116.575 71.0892 115.513 73.1686 115.513 73.1686C116.575 74.2083 118.169 75.7678 119.231 75.7678C122.418 75.248 128.26 68.4899 128.26 65.3708ZM160.126 87.7243C156.94 89.8037 154.815 91.3633 152.691 92.9228C152.16 93.4427 158.002 99.6809 158.533 99.161C160.126 96.5618 161.72 93.9625 163.313 91.3633C163.313 91.3633 161.72 89.8037 160.126 87.7243ZM135.164 97.0816C135.695 98.1213 136.227 98.6412 136.758 99.6809C139.944 99.6809 142.6 99.6809 145.786 99.6809C146.849 99.6809 148.442 100.721 149.504 101.24C148.973 99.6809 148.973 98.1213 147.911 96.5618C144.724 90.3236 144.724 90.3236 139.413 95.0022C138.351 96.0419 136.758 96.5618 135.164 97.0816ZM125.604 39.3784C122.418 39.3784 117.107 45.0967 118.169 46.1364C119.231 47.696 121.355 48.7357 122.949 49.7754C124.011 50.2952 128.791 43.5372 128.26 41.4578C127.729 40.4181 126.135 39.8982 125.604 39.3784ZM86.8333 55.4937C85.7711 57.5731 84.1778 59.6525 83.1156 61.7319C81.5222 64.851 84.1778 66.4105 85.7711 67.9701C86.3022 68.4899 88.9578 69.0098 88.9578 68.4899C89.4889 66.4105 90.5511 64.3311 90.02 62.7716C90.02 60.1723 88.4266 57.5731 86.8333 55.4937ZM67.7134 97.0816C70.3689 97.0816 74.0867 92.9228 74.6178 89.2839C74.6178 88.764 74.0867 87.2045 73.5556 87.2045C67.7134 84.6053 70.3689 91.3633 67.1823 92.403C66.6512 92.403 65.589 93.4427 65.589 93.9625C65.0578 95.0022 65.0578 95.5221 65.0578 96.5618C66.1201 97.0816 67.1823 97.0816 67.7134 97.0816ZM106.484 67.4502C105.953 65.3708 105.422 64.3311 104.36 62.7716C103.829 62.2517 102.767 61.7319 102.235 61.7319C101.704 61.7319 100.642 62.7716 100.642 63.2914C100.642 64.3311 100.642 65.8907 101.704 66.9304C102.767 67.9701 104.36 67.9701 105.953 68.4899L106.484 67.4502ZM61.8712 30.0211C61.3401 28.4616 60.809 27.4219 60.809 26.902C59.2156 27.9417 57.6223 28.9814 56.5601 30.541C57.0912 31.0608 58.1534 31.5807 58.6845 31.5807C59.7467 31.5807 60.809 30.541 61.8712 30.0211ZM162.782 40.9379C161.72 39.3784 160.658 38.3387 159.064 37.299C158.533 38.3387 157.471 39.8982 158.002 40.4181C159.064 41.4578 160.658 41.9776 161.72 42.4975C161.72 41.9776 162.251 40.9379 162.782 40.9379ZM116.575 34.6997C118.7 33.6601 119.231 33.66 120.293 33.1402C119.762 32.6204 118.7 31.5807 118.169 31.5807C117.638 31.5807 116.575 32.1005 116.044 32.6203C116.044 33.66 116.575 34.6997 116.575 34.6997ZM173.935 61.212C174.466 61.7319 174.466 62.2517 174.997 62.7716C175.529 62.2517 176.06 62.2517 176.06 61.7319C176.06 61.212 175.529 60.6922 174.997 60.1723C174.997 60.6922 174.466 61.212 173.935 61.212Z" fill="white"/>
<path d="M170.218 143.349C173.936 143.869 176.591 143.869 178.716 144.908C182.965 148.547 187.213 152.186 188.807 157.385C188.807 157.904 188.807 158.944 188.807 158.944C188.276 159.464 186.682 159.464 186.151 159.464C178.716 153.746 169.156 152.706 160.127 149.067C159.596 149.067 159.065 148.547 158.002 148.547C158.534 148.027 159.596 146.988 160.127 146.988C163.845 145.428 167.562 144.388 170.218 143.349Z" fill="white"/>
<path d="M59.2148 68.4903C59.746 66.4109 60.2771 64.8513 60.8082 62.7719C61.3393 61.7322 62.4015 59.6528 64.5259 61.7322C66.1192 63.8116 67.1815 66.4109 69.3059 67.9704C70.8992 69.0101 74.617 66.4109 75.1481 70.5697C71.9614 73.1689 68.7748 75.7682 65.5881 78.3674C63.4637 75.2483 65.057 69.53 59.2148 68.4903Z" fill="white"/>
<path d="M135.164 32.1005C135.695 32.6204 136.226 32.6204 136.226 33.1402C135.695 33.6601 135.695 34.1799 135.164 34.6998C134.633 34.1799 134.633 34.1799 134.102 33.6601C134.102 32.6204 134.633 32.6204 135.164 32.1005Z" fill="white"/>
<path d="M184.557 71.0896C182.964 71.6094 181.371 72.1293 179.777 73.169C179.777 71.6094 179.246 70.0499 179.246 68.4903C179.246 67.4506 179.246 66.9308 179.246 65.8911C180.839 65.8911 182.964 65.8911 184.557 65.8911C184.557 67.4506 184.557 69.0102 184.557 71.0896Z" fill="white"/>
</g>
<defs>
<filter id="filter0_d" x="0" y="0" width="246" height="246" filterUnits="userSpaceOnUse" color-interpolation-filters="sRGB">
<feFlood flood-opacity="0" result="BackgroundImageFix"/>
<feColorMatrix in="SourceAlpha" type="matrix" values="0 0 0 0 0 0 0 0 0 0 0 0 0 0 0 0 0 0 127 0"/>
<feOffset dx="5" dy="5"/>
<feGaussianBlur stdDeviation="5"/>
<feColorMatrix type="matrix" values="0 0 0 0 0 0 0 0 0 0 0 0 0 0 0 0 0 0 0.5 0"/>
<feBlend mode="normal" in2="BackgroundImageFix" result="effect1_dropShadow"/>
<feBlend mode="normal" in="SourceGraphic" in2="effect1_dropShadow" result="shape"/>
</filter>
</defs>
</svg>
